<?xml version="1.0" standalone="no"?>
<!DOCTYPE svg PUBLIC "-//W3C//DTD SVG 20010904//EN"
 "http://www.w3.org/TR/2001/REC-SVG-20010904/DTD/svg10.dtd">
<svg version="1.0" xmlns="http://www.w3.org/2000/svg"
 width="360.000000pt" height="360.000000pt" viewBox="0 0 360.000000 360.000000"
 preserveAspectRatio="xMidYMid meet">

<g transform="translate(0.000000,360.000000) scale(0.100000,-0.100000)"
fill="#000000" stroke="none">
<path d="M1521 2710 c-519 -50 -958 -222 -1201 -469 -143 -146 -202 -270 -204
-431 -2 -171 58 -304 204 -451 228 -230 592 -383 1085 -455 171 -26 621 -26
790 -1 476 71 836 217 1066 434 176 166 254 368 216 558 -26 129 -84 233 -192
341 -230 232 -579 382 -1060 455 -150 23 -550 34 -704 19z m669 -155 c443 -61
817 -222 1013 -434 76 -82 113 -149 133 -240 21 -92 9 -176 -37 -270 -40 -82
-172 -216 -279 -286 -215 -140 -525 -241 -880 -286 -155 -20 -561 -18 -720 4
-459 64 -823 219 -1023 436 -76 82 -113 149 -133 240 -21 92 -9 175 37 271 40
81 170 214 279 285 217 141 552 250 880 284 58 6 119 13 135 15 68 10 487 -4
595 -19z"/>
<path d="M1605 2388 c-2 -7 -22 -112 -46 -233 -23 -121 -58 -304 -79 -408 -20
-103 -34 -189 -32 -192 3 -3 44 -5 92 -5 l87 0 47 245 48 245 102 0 c128 0
146 -10 146 -79 0 -26 -16 -126 -35 -221 -19 -95 -35 -177 -35 -182 0 -5 41
-7 92 -6 l92 3 38 185 c43 204 51 311 29 354 -32 60 -123 86 -298 86 -57 0
-103 2 -103 4 0 2 9 48 20 101 11 53 20 101 20 106 0 15 -180 11 -185 -3z"/>
<path d="M835 2168 c-5 -14 -62 -308 -120 -613 -20 -104 -39 -198 -41 -207 -5
-16 4 -18 88 -18 l94 0 19 98 c10 53 20 103 22 110 4 8 35 12 107 12 186 0
267 23 352 102 154 142 165 399 21 482 -65 37 -131 46 -343 46 -147 0 -196 -3
-199 -12z m405 -150 c38 -26 53 -66 44 -118 -26 -160 -87 -210 -259 -210 -52
0 -95 3 -95 8 0 4 14 82 32 175 l32 167 106 0 c94 0 111 -3 140 -22z"/>
<path d="M2287 2173 c-5 -9 -4 -3 -92 -458 -36 -187 -68 -350 -70 -362 -5 -23
-4 -23 89 -23 l94 0 17 98 c10 53 20 102 22 108 3 7 55 13 146 16 165 6 228
25 300 88 160 141 183 391 45 486 -61 43 -132 54 -350 54 -108 0 -199 -3 -201
-7z m386 -146 c48 -21 61 -42 61 -101 -2 -109 -47 -187 -126 -220 -45 -19
-228 -23 -228 -5 0 6 14 85 32 175 l31 164 99 0 c60 0 111 -5 131 -13z"/>
</g>
</svg>
